<svg width="960" height="720" viewBox="0 0 960 720" fill="none" xmlns="http://www.w3.org/2000/svg">
  <rect width="960" height="720" rx="48" fill="#08111F"/>
  <g opacity="0.72">
    <rect x="184" y="102" width="454" height="474" rx="28" transform="rotate(-8 184 102)" fill="#0C1830" stroke="rgba(255,255,255,0.08)"/>
    <rect x="254" y="86" width="454" height="474" rx="28" transform="rotate(4 254 86)" fill="#10223E" stroke="rgba(255,255,255,0.08)"/>
  </g>
  <rect x="250" y="120" width="454" height="474" rx="28" fill="#F8FAFC"/>
  <rect x="290" y="174" width="122" height="18" rx="9" fill="#48CCBF"/>
  <rect x="290" y="218" width="250" height="24" rx="12" fill="#0F172A"/>
  <rect x="290" y="262" width="176" height="18" rx="9" fill="#64748B"/>
  <rect x="290" y="330" width="374" height="1.5" fill="#CBD5E1"/>
  <rect x="290" y="362" width="118" height="14" rx="7" fill="#94A3B8"/>
  <rect x="496" y="360" width="168" height="16" rx="8" fill="#0F172A"/>
  <rect x="290" y="406" width="132" height="14" rx="7" fill="#94A3B8"/>
  <rect x="470" y="404" width="194" height="16" rx="8" fill="#0F172A"/>
  <rect x="290" y="452" width="112" height="14" rx="7" fill="#94A3B8"/>
  <rect x="552" y="450" width="112" height="16" rx="8" fill="#0F172A"/>
  <rect x="290" y="504" width="220" height="18" rx="9" fill="#94A3B8"/>
  <rect x="290" y="540" width="280" height="18" rx="9" fill="#0F172A"/>
  <circle cx="728" cy="200" r="78" fill="#48CCBF" fill-opacity="0.14"/>
  <circle cx="220" cy="540" r="96" fill="#F5B942" fill-opacity="0.12"/>
</svg>
